<?xml version="1.0" encoding="iso-8859-1"?>
<!-- Generator: Adobe Illustrator 19.0.0, SVG Export Plug-In . SVG Version: 6.00 Build 0)  -->
<svg version="1.1" id="Layer_1" xmlns="http://www.w3.org/2000/svg" xmlns:xlink="http://www.w3.org/1999/xlink" x="0px" y="0px"
	 viewBox="0 0 512.001 512.001" style="enable-background:new 0 0 512.001 512.001;" xml:space="preserve">
<g>
	<g>
		<path d="M256.001,0C114.841,0,0,114.841,0,256.001s114.841,256.001,256.001,256.001S512.001,397.16,512.001,256.001
			S397.16,0,256.001,0z M256.001,493.701c-131.069,0-237.702-106.631-237.702-237.7S124.932,18.299,256.001,18.299
			s237.702,106.632,237.702,237.702S387.068,493.701,256.001,493.701z"/>
	</g>
</g>
<g>
	<g>
		<path d="M398.043,356.96c-36.608-36.606-85.276-56.765-137.043-56.765c-51.768,0-100.436,20.159-137.042,56.765
			c-3.573,3.573-3.573,9.367,0,12.939c3.573,3.572,9.365,3.574,12.94,0c33.148-33.148,77.222-51.405,124.102-51.405
			s90.954,18.256,124.102,51.405c1.787,1.786,4.128,2.68,6.471,2.68c2.341,0,4.683-0.893,6.471-2.68
			C401.616,366.326,401.616,360.532,398.043,356.96z"/>
	</g>
</g>
<g>
	<g>
		<path d="M299.85,348.356c-28.688-8.043-59.015-8.042-87.7,0c-4.865,1.365-7.704,6.414-6.34,11.281
			c1.133,4.039,4.805,6.682,8.806,6.682c0.817,0,1.649-0.111,2.474-0.342c25.455-7.137,52.363-7.138,77.821,0
			c4.865,1.366,9.914-1.475,11.28-6.34C307.554,354.771,304.715,349.72,299.85,348.356z"/>
	</g>
</g>
<g>
	<g>
		<path d="M232.023,223.786c-1.327-4.877-6.362-7.753-11.231-6.428c-64.86,17.643-92.98-23.546-94.224-25.432
			c-2.744-4.223-8.388-5.438-12.626-2.709c-4.249,2.735-5.475,8.397-2.74,12.646c0.305,0.476,6.439,9.849,19.049,19.163
			c-10.357,5.797-17.379,16.872-17.379,29.559c0,18.666,15.186,33.852,33.852,33.852s33.852-15.186,33.852-33.852
			c0-3.914-0.676-7.672-1.903-11.172c3.656,0.376,7.477,0.589,11.481,0.589c10.598,0,22.411-1.442,35.442-4.985
			C230.47,233.69,233.348,228.663,232.023,223.786z"/>
	</g>
</g>
<g>
	<g>
		<path d="M400.8,201.865c2.734-4.25,1.508-9.912-2.741-12.647c-4.248-2.735-9.912-1.509-12.645,2.74
			c-0.279,0.434-28.711,43.216-94.205,25.402c-4.871-1.322-9.903,1.551-11.231,6.428c-1.326,4.876,1.552,9.903,6.428,11.231
			c13.033,3.544,24.843,4.985,35.442,4.985c4.003,0,7.823-0.214,11.48-0.589c-1.227,3.5-1.903,7.257-1.903,11.172
			c0,18.666,15.186,33.852,33.852,33.852s33.852-15.186,33.852-33.852c0-12.689-7.021-23.762-17.378-29.558
			C394.361,211.713,400.495,202.339,400.8,201.865z"/>
	</g>
</g>
<g>
	<g>
		<g>
			<circle cx="153.566" cy="249.27" r="9.15"/>
			<circle cx="371.935" cy="249.27" r="9.15"/>
		</g>
	</g>
</g>
<g>
</g>
<g>
</g>
<g>
</g>
<g>
</g>
<g>
</g>
<g>
</g>
<g>
</g>
<g>
</g>
<g>
</g>
<g>
</g>
<g>
</g>
<g>
</g>
<g>
</g>
<g>
</g>
<g>
</g>
</svg>
