<svg width="70" height="19" viewBox="0 0 70 19" fill="none" xmlns="http://www.w3.org/2000/svg">
<path d="M2.29688 10.125L9.70312 13.4531L9.31641 15.6445L0.773438 11.2031L0.996094 9.9375L2.29688 10.125ZM10.7344 7.47656L2.4375 10.7578L0.820312 10.9336L1.06641 9.50391L11.1562 5.07422L10.7344 7.47656ZM25.8516 10.0195H21.5273L21.8203 8.20312L25.5117 8.21484C26.1133 8.21484 26.6797 8.10938 27.2109 7.89844C27.75 7.6875 28.1992 7.37109 28.5586 6.94922C28.9258 6.52734 29.1484 5.99609 29.2266 5.35547C29.3047 4.74609 29.2422 4.25781 29.0391 3.89062C28.8359 3.51562 28.5234 3.24609 28.1016 3.08203C27.6875 2.91016 27.1992 2.81641 26.6367 2.80078L23.2852 2.78906L20.6484 18H18.4336L21.3984 0.9375L26.6836 0.949219C27.3945 0.964844 28.0508 1.0625 28.6523 1.24219C29.2617 1.41406 29.7852 1.67969 30.2227 2.03906C30.6602 2.39062 30.9883 2.84375 31.207 3.39844C31.4336 3.95312 31.5156 4.61719 31.4531 5.39062C31.3906 6.22656 31.125 6.92969 30.6562 7.5C30.1953 8.07031 29.6133 8.51953 28.9102 8.84766C28.2148 9.16797 27.4922 9.37891 26.7422 9.48047L25.8516 10.0195ZM24.3867 18H19.207L20.7656 16.1602L24.4453 16.1719C25.1094 16.1719 25.7227 16.0508 26.2852 15.8086C26.8477 15.5664 27.3125 15.2109 27.6797 14.7422C28.0547 14.2734 28.2852 13.6953 28.3711 13.0078C28.4414 12.3984 28.3945 11.875 28.2305 11.4375C28.0664 11 27.7852 10.6641 27.3867 10.4297C26.9883 10.1875 26.4805 10.0547 25.8633 10.0312L22.5938 10.0195L22.9336 8.20312L27.0938 8.21484L27.457 8.87109C28.1602 8.98047 28.75 9.23047 29.2266 9.62109C29.7109 10.0039 30.0625 10.4883 30.2812 11.0742C30.5078 11.6523 30.5977 12.2891 30.5508 12.9844C30.4648 14.1016 30.1289 15.0352 29.543 15.7852C28.9648 16.5273 28.2227 17.0859 27.3164 17.4609C26.4102 17.8281 25.4336 18.0078 24.3867 18ZM40.2891 15.832L41.3438 9.28125C41.3984 8.79688 41.3516 8.37109 41.2031 8.00391C41.0625 7.63672 40.8242 7.35156 40.4883 7.14844C40.1602 6.94531 39.7461 6.83594 39.2461 6.82031C38.8086 6.8125 38.3789 6.88281 37.957 7.03125C37.543 7.17969 37.1836 7.40234 36.8789 7.69922C36.5742 7.99609 36.375 8.37109 36.2812 8.82422L34.1719 8.83594C34.2266 8.20312 34.4258 7.65234 34.7695 7.18359C35.1133 6.70703 35.543 6.3125 36.0586 6C36.5742 5.67969 37.1289 5.44531 37.7227 5.29688C38.3164 5.14062 38.8945 5.06641 39.457 5.07422C40.3086 5.08984 41.0469 5.27344 41.6719 5.625C42.3047 5.96875 42.7812 6.45312 43.1016 7.07812C43.4219 7.70312 43.5391 8.45312 43.4531 9.32812L42.4805 15.2344C42.4102 15.6641 42.3672 16.0977 42.3516 16.5352C42.3438 16.9648 42.3945 17.3867 42.5039 17.8008L42.4805 18L40.3359 18.0117C40.25 17.6523 40.207 17.2891 40.207 16.9219C40.2148 16.5547 40.2422 16.1914 40.2891 15.832ZM41.5898 10.3125L41.3438 11.8359L39.3398 11.8242C38.918 11.8242 38.4727 11.8555 38.0039 11.918C37.5352 11.9805 37.0898 12.0977 36.668 12.2695C36.2461 12.4414 35.8906 12.6914 35.6016 13.0195C35.3125 13.3398 35.1367 13.7578 35.0742 14.2734C35.0273 14.6953 35.0781 15.0625 35.2266 15.375C35.3828 15.6797 35.6172 15.918 35.9297 16.0898C36.2422 16.2617 36.6055 16.3516 37.0195 16.3594C37.5586 16.3672 38.0898 16.2617 38.6133 16.043C39.1367 15.8242 39.5938 15.5117 39.9844 15.1055C40.375 14.6992 40.6445 14.2305 40.793 13.6992L41.5664 14.7422C41.418 15.2578 41.1758 15.7344 40.8398 16.1719C40.5039 16.6016 40.1055 16.9727 39.6445 17.2852C39.1914 17.5977 38.7031 17.8398 38.1797 18.0117C37.6562 18.1836 37.1328 18.2656 36.6094 18.2578C35.8984 18.2422 35.2539 18.082 34.6758 17.7773C34.1055 17.4727 33.6523 17.0469 33.3164 16.5C32.9883 15.9453 32.8477 15.3008 32.8945 14.5664C32.9414 13.7617 33.1523 13.0859 33.5273 12.5391C33.9023 11.9922 34.3828 11.5547 34.9688 11.2266C35.5625 10.8984 36.2109 10.6641 36.9141 10.5234C37.6172 10.375 38.3125 10.3008 39 10.3008L41.5898 10.3125ZM50.5898 16.4648C51.1055 16.4727 51.5859 16.375 52.0312 16.1719C52.4766 15.9688 52.8555 15.6797 53.168 15.3047C53.4805 14.9297 53.7031 14.4961 53.8359 14.0039L55.8516 13.9922C55.7266 14.8438 55.3945 15.5898 54.8555 16.2305C54.3242 16.8711 53.6719 17.3711 52.8984 17.7305C52.1328 18.082 51.332 18.25 50.4961 18.2344C49.6055 18.2188 48.8477 18.0352 48.2227 17.6836C47.6055 17.3242 47.1094 16.8477 46.7344 16.2539C46.3594 15.6602 46.1016 14.9922 45.9609 14.25C45.8203 13.5 45.7891 12.7305 45.8672 11.9414L45.9141 11.4375C46.0078 10.5859 46.2148 9.77734 46.5352 9.01172C46.8555 8.23828 47.2812 7.55469 47.8125 6.96094C48.3516 6.35938 48.9883 5.89062 49.7227 5.55469C50.457 5.21875 51.2812 5.0625 52.1953 5.08594C53.0859 5.10156 53.8594 5.3125 54.5156 5.71875C55.1719 6.11719 55.6797 6.66016 56.0391 7.34766C56.3984 8.03516 56.5781 8.81641 56.5781 9.69141L54.5859 9.67969C54.5781 9.17969 54.4805 8.71875 54.293 8.29688C54.1055 7.875 53.8281 7.53516 53.4609 7.27734C53.0938 7.01953 52.6406 6.87891 52.1016 6.85547C51.4531 6.83984 50.8867 6.96094 50.4023 7.21875C49.9258 7.47656 49.5195 7.83203 49.1836 8.28516C48.8555 8.73047 48.5938 9.22656 48.3984 9.77344C48.2109 10.3203 48.082 10.875 48.0117 11.4375L47.9531 11.9297C47.9062 12.4297 47.8984 12.9414 47.9297 13.4648C47.9688 13.9883 48.0781 14.4766 48.2578 14.9297C48.4375 15.375 48.7148 15.7383 49.0898 16.0195C49.4648 16.3008 49.9648 16.4492 50.5898 16.4648ZM62.7539 0L59.625 18H57.4922L60.6211 0H62.7539ZM69.4336 5.32031L63.1523 11.1328L59.3672 14.543L59.625 12.0352L62.1562 9.45703L66.668 5.32031H69.4336ZM65.2969 18L61.875 11.8359L63.2227 10.0195L67.6172 18H65.2969Z" fill="#545454"/>
</svg>
