<?xml version="1.0" standalone="no"?>
<!DOCTYPE svg PUBLIC "-//W3C//DTD SVG 20010904//EN"
 "http://www.w3.org/TR/2001/REC-SVG-20010904/DTD/svg10.dtd">
<svg version="1.0" xmlns="http://www.w3.org/2000/svg"
 width="225.000000pt" height="225.000000pt" viewBox="0 0 225.000000 225.000000"
 preserveAspectRatio="xMidYMid meet">

<g transform="translate(0.000000,225.000000) scale(0.100000,-0.100000)"
fill="#000000" stroke="none">
<path d="M720 2240 c-164 -26 -310 -123 -395 -265 -140 -234 -88 -548 120
-717 l46 -37 -43 -22 c-244 -123 -415 -375 -442 -651 l-7 -68 81 0 80 0 0 43
c1 105 55 250 133 353 123 161 355 267 552 251 71 -6 186 -37 238 -63 l27 -15
-28 -42 c-75 -109 -112 -230 -112 -366 1 -286 178 -525 455 -611 90 -28 250
-31 345 -6 213 57 398 242 456 456 27 102 23 254 -10 357 -51 159 -167 295
-317 373 -107 55 -189 73 -319 67 -121 -5 -205 -28 -292 -81 l-57 -34 -53 26
c-29 15 -54 27 -56 28 -1 1 31 34 71 75 126 126 174 252 164 429 -17 329 -313
570 -637 520z m253 -187 c207 -97 292 -340 191 -542 -124 -247 -447 -303 -642
-111 -178 175 -158 459 43 612 112 85 277 102 408 41z m723 -934 c179 -33 332
-176 379 -354 29 -112 16 -235 -36 -342 -31 -62 -150 -181 -212 -212 -144 -69
-306 -68 -449 5 -75 38 -168 135 -206 215 -18 38 -37 99 -44 142 -37 242 126
482 368 541 73 18 124 19 200 5z"/>
<path d="M1738 723 l-128 -128 -93 93 -93 92 -57 -58 -57 -57 148 -148 147
-147 188 188 187 187 -53 53 c-29 28 -55 52 -57 52 -3 0 -62 -57 -132 -127z"/>
</g>
</svg>
