<?xml version="1.0" encoding="iso-8859-1"?>
<!-- Generator: Adobe Illustrator 19.0.0, SVG Export Plug-In . SVG Version: 6.00 Build 0)  -->
<svg version="1.1" id="Layer_1" xmlns="http://www.w3.org/2000/svg" xmlns:xlink="http://www.w3.org/1999/xlink" x="0px" y="0px"
	 viewBox="0 0 512 512" style="enable-background:new 0 0 512 512;" xml:space="preserve">
<g>
	<g>
		<g>
			<path d="M256,0C114.617,0,0,114.617,0,256s114.617,256,256,256s256-114.617,256-256S397.383,0,256,0z M256,494.933
				C124.043,494.933,17.067,387.957,17.067,256S124.043,17.067,256,17.067S494.933,124.043,494.933,256S387.957,494.933,256,494.933
				z"/>
			<path d="M133.638,204.266c-3.538-3.114-8.93-2.771-12.044,0.767c-3.114,3.538-2.771,8.93,0.767,12.044
				c24.336,21.423,66.547,16.029,88.844-9.3c5.023-5.706,0.641-14.636-6.946-14.155c-27.76,1.761-66.456-20.357-67.744-40.564
				c-0.3-4.703-4.356-8.273-9.059-7.973c-4.703,0.3-8.273,4.356-7.973,9.059c1.591,24.956,31.991,47.308,62.48,54.351
				C165.711,215.874,145.843,215.009,133.638,204.266z"/>
			<path d="M307.74,193.621c-7.586-0.481-11.968,8.449-6.945,14.155c22.297,25.329,64.507,30.723,88.844,9.3
				c3.537-3.114,3.881-8.506,0.767-12.044c-3.114-3.537-8.506-3.881-12.044-0.767c-12.205,10.744-32.073,11.609-48.326,4.228
				c30.489-7.043,60.889-29.395,62.48-54.351c0.3-4.703-3.27-8.759-7.973-9.059c-4.703-0.3-8.759,3.27-9.059,7.973
				C374.196,173.265,335.5,195.383,307.74,193.621z"/>
			<path d="M170.667,153.6c28.299,0,51.2-22.901,51.2-51.2c0-4.713-3.821-8.533-8.533-8.533c-4.713,0-8.533,3.82-8.533,8.533
				c0,18.873-15.26,34.133-34.133,34.133c-4.713,0-8.533,3.82-8.533,8.533S165.954,153.6,170.667,153.6z"/>
			<path d="M341.333,153.6c4.713,0,8.533-3.821,8.533-8.533s-3.82-8.533-8.533-8.533c-18.873,0-34.133-15.26-34.133-34.133
				c0-4.713-3.82-8.533-8.533-8.533s-8.533,3.82-8.533,8.533C290.133,130.699,313.034,153.6,341.333,153.6z"/>
			<path d="M255.682,264.533c-58.128,0-109.94,34.514-132.896,86.828c-12.73,28.988,12.914,59.719,43.65,52.136
				c6.962-1.72,14.042-3.204,21.297-4.511V409.6c0,37.703,30.564,68.267,68.267,68.267s68.267-30.564,68.267-68.267v-10.177
				c7.706,1.395,15.138,2.964,22.167,4.671c29.351,7.118,54.884-22.081,43.331-49.959
				C367.495,300.352,314.899,264.533,255.682,264.533z M256,460.8c-28.277,0-51.2-22.923-51.2-51.2v-49.613
				c0-10.376,8.234-18.965,17.764-18.642c8.324,0.285,17.128,5.352,27.733,14.872c1.621,1.455,3.661,2.183,5.7,2.183
				c2.04,0.001,4.08-0.727,5.702-2.183c1.084-0.973,2.144-1.887,3.192-2.766c9.219-7.735,17.07-11.85,24.548-12.105
				c6.027-0.203,11.528,3.163,14.763,8.287c1.877,2.976,2.995,6.542,2.995,10.355v29.338c0,0.019,0.002,0.038,0.003,0.057V409.6
				C307.2,437.877,284.277,460.8,256,460.8z M350.459,387.509c-8.278-2.01-17.065-3.839-26.192-5.424v-22.098
				c0-6.986-2.001-13.575-5.44-19.15c-5.977-9.694-16.316-16.315-28.158-16.56c-0.602-0.013-1.208-0.009-1.817,0.012
				c-2.76,0.094-5.449,0.463-8.099,1.083c-0.104,0.024-0.208,0.042-0.312,0.067c-0.321,0.078-0.64,0.172-0.961,0.257
				c-0.366,0.097-0.733,0.187-1.098,0.294c-0.09,0.026-0.178,0.059-0.268,0.086c-1.275,0.384-2.544,0.823-3.807,1.326
				c-0.149,0.059-0.298,0.128-0.447,0.189c-0.525,0.215-1.051,0.432-1.575,0.668c-5.394,2.423-10.739,5.916-16.287,10.39
				c-11.093-8.947-21.378-13.969-32.852-14.361c-0.609-0.021-1.215-0.025-1.816-0.012c-18.651,0.388-33.601,16.579-33.601,35.711
				v21.655c-8.671,1.492-17.091,3.238-25.385,5.287c-16.946,4.181-30.986-12.644-23.932-28.707
				c20.259-46.168,65.975-76.621,117.268-76.621c52.254,0,98.664,31.606,118.315,79.066
				C380.164,375.548,366.338,391.36,350.459,387.509z"/>
		</g>
	</g>
</g>
<g>
</g>
<g>
</g>
<g>
</g>
<g>
</g>
<g>
</g>
<g>
</g>
<g>
</g>
<g>
</g>
<g>
</g>
<g>
</g>
<g>
</g>
<g>
</g>
<g>
</g>
<g>
</g>
<g>
</g>
</svg>
