<?xml version="1.0" encoding="iso-8859-1"?>
<!-- Generator: Adobe Illustrator 19.0.0, SVG Export Plug-In . SVG Version: 6.00 Build 0)  -->
<svg version="1.1" id="Layer_1" xmlns="http://www.w3.org/2000/svg" xmlns:xlink="http://www.w3.org/1999/xlink" x="0px" y="0px"
	 viewBox="0 0 512 512" style="enable-background:new 0 0 512 512;" xml:space="preserve">
<g>
	<g>
		<g>
			<path d="M256,0C114.617,0,0,114.617,0,256s114.617,256,256,256s256-114.617,256-256S397.383,0,256,0z M256,494.933
				C124.043,494.933,17.067,387.957,17.067,256S124.043,17.067,256,17.067S494.933,124.043,494.933,256S387.957,494.933,256,494.933
				z"/>
			<path d="M358.4,145.067c-23.563,0-42.667,19.104-42.667,42.667c0,23.563,19.104,42.667,42.667,42.667
				c23.563,0,42.667-19.104,42.667-42.667C401.067,164.17,381.963,145.067,358.4,145.067z M358.4,213.333
				c-14.137,0-25.6-11.463-25.6-25.6s11.463-25.6,25.6-25.6s25.6,11.463,25.6,25.6S372.537,213.333,358.4,213.333z"/>
			<path d="M153.6,230.4c23.563,0,42.667-19.104,42.667-42.667c0-23.563-19.104-42.667-42.667-42.667
				c-23.563,0-42.667,19.104-42.667,42.667C110.933,211.296,130.037,230.4,153.6,230.4z M153.6,162.133
				c14.137,0,25.6,11.463,25.6,25.6s-11.463,25.6-25.6,25.6c-14.137,0-25.6-11.463-25.6-25.6S139.463,162.133,153.6,162.133z"/>
			<path d="M255.633,281.597c-58.13,0-109.949,34.516-132.904,86.828c-12.719,28.999,12.915,59.718,43.65,52.136
				c1.73-0.427,3.459-0.835,5.187-1.235c0.35-0.035,0.701-0.089,1.054-0.169c57.517-13.09,114.324-11.318,166.771,0.375
				c0.029,0.007,0.058,0.008,0.087,0.014c2.308,0.518,4.61,1.047,6.901,1.603c29.345,7.128,54.882-22.071,43.328-49.951
				C367.438,317.417,314.843,281.597,255.633,281.597z M180.283,400.013c4.35-18.949,21.314-33.08,41.584-33.08
				c10.628,0,20.627,3.928,28.434,10.933c3.242,2.91,8.156,2.91,11.398,0c7.807-7.005,17.806-10.933,28.434-10.933
				c20.445,0,37.529,14.376,41.695,33.572C283.806,391.111,232.532,389.77,180.283,400.013z M350.405,404.565
				c-0.259-0.063-0.52-0.121-0.779-0.183c-2.645-30.546-28.26-54.515-59.493-54.515c-12.409,0-24.23,3.832-34.133,10.77
				c-9.904-6.938-21.724-10.77-34.133-10.77c-31.091,0-56.62,23.75-59.461,54.098c-0.039,0.009-0.077,0.018-0.115,0.027
				c-16.948,4.181-30.982-12.637-23.933-28.71c20.257-46.162,65.98-76.618,117.275-76.618c52.247,0,98.655,31.607,118.307,79.066
				C380.107,392.613,366.281,408.422,350.405,404.565z"/>
			<path d="M384,136.533c4.713,0,8.533-3.82,8.533-8.533s-3.82-8.533-8.533-8.533c-14.154,0-25.6-11.446-25.6-25.6
				c0-4.713-3.82-8.533-8.533-8.533s-8.533,3.821-8.533,8.533C341.333,117.447,360.42,136.533,384,136.533z"/>
			<path d="M128,136.533c23.58,0,42.667-19.087,42.667-42.667c0-4.713-3.82-8.533-8.533-8.533s-8.533,3.821-8.533,8.533
				c0,14.154-11.446,25.6-25.6,25.6c-4.713,0-8.533,3.82-8.533,8.533S123.287,136.533,128,136.533z"/>
		</g>
	</g>
</g>
<g>
</g>
<g>
</g>
<g>
</g>
<g>
</g>
<g>
</g>
<g>
</g>
<g>
</g>
<g>
</g>
<g>
</g>
<g>
</g>
<g>
</g>
<g>
</g>
<g>
</g>
<g>
</g>
<g>
</g>
</svg>
