<?xml version="1.0" encoding="iso-8859-1"?>
<!-- Generator: Adobe Illustrator 19.0.0, SVG Export Plug-In . SVG Version: 6.00 Build 0)  -->
<svg version="1.1" id="Layer_1" xmlns="http://www.w3.org/2000/svg" xmlns:xlink="http://www.w3.org/1999/xlink" x="0px" y="0px"
	 viewBox="0 0 512 512" style="enable-background:new 0 0 512 512;" xml:space="preserve">
<g>
	<g>
		<path d="M256.001,0C114.841,0,0,114.841,0,255.999C0,397.159,114.841,512,256.001,512C397.159,512,512,397.159,512,255.999
			C512,114.841,397.159,0,256.001,0z M256.001,493.701c-131.069,0-237.702-106.632-237.702-237.702
			c0-131.068,106.632-237.7,237.702-237.7c131.068,0,237.7,106.632,237.7,237.7C493.701,387.068,387.068,493.701,256.001,493.701z"
			/>
	</g>
</g>
<g>
	<g>
		<path d="M146.725,170.978c-18.666,0-33.852,15.186-33.852,33.852c0,18.666,15.186,33.852,33.852,33.852
			c18.666,0,33.852-15.186,33.852-33.852C180.577,186.164,165.391,170.978,146.725,170.978z"/>
	</g>
</g>
<g>
	<g>
		<path d="M365.277,170.979c-18.666,0-33.852,15.186-33.852,33.852s15.186,33.852,33.852,33.852s33.852-15.186,33.852-33.852
			C399.129,186.165,383.942,170.979,365.277,170.979z"/>
	</g>
</g>
<g>
	<g>
		<path d="M376.778,264.574H127.911c-5.053,0-9.15,4.097-9.15,9.15c0,14.662,2.367,29.087,7.034,42.876
			c8.934,26.382,25.643,48.999,48.316,65.4c22.86,16.557,49.914,25.309,78.234,25.309c28.32,0,55.373-8.752,78.23-25.305
			c22.677-16.404,39.387-39.021,48.319-65.402c4.667-13.788,7.034-28.214,7.034-42.875
			C385.928,268.671,381.831,264.574,376.778,264.574z M252.343,389.008c-21.32,0-41.801-5.747-59.777-16.696
			c7.649-8.21,18.499-13.083,29.925-13.083c8.87,0,17.302,2.79,24.385,8.069c3.244,2.417,7.69,2.418,10.934,0
			c7.082-5.279,15.51-8.069,24.372-8.069c11.421,0,22.274,4.871,29.932,13.085C294.143,383.261,273.662,389.008,252.343,389.008z
			 M327.021,361.551c-11.137-12.9-27.534-20.621-44.838-20.621c-10.623,0-20.819,2.772-29.84,8.066
			c-9.021-5.296-19.221-8.066-29.852-8.066c-17.312,0-33.709,7.723-44.83,20.616c-12.623-10.71-22.68-23.855-29.665-38.732H356.69
			C349.705,337.694,339.647,350.84,327.021,361.551z M363.461,304.515H141.226c-1.954-7.067-3.233-14.303-3.809-21.642H367.27
			C366.694,290.211,365.416,297.448,363.461,304.515z"/>
	</g>
</g>
<g>
	<g>
		<g>
			<circle cx="150.479" cy="200.216" r="9.15"/>
			<circle cx="368.849" cy="200.216" r="9.15"/>
		</g>
	</g>
</g>
<g>
</g>
<g>
</g>
<g>
</g>
<g>
</g>
<g>
</g>
<g>
</g>
<g>
</g>
<g>
</g>
<g>
</g>
<g>
</g>
<g>
</g>
<g>
</g>
<g>
</g>
<g>
</g>
<g>
</g>
</svg>
