<?xml version="1.0" standalone="no"?>
<!DOCTYPE svg PUBLIC "-//W3C//DTD SVG 20010904//EN"
 "http://www.w3.org/TR/2001/REC-SVG-20010904/DTD/svg10.dtd">
<svg version="1.0" xmlns="http://www.w3.org/2000/svg"
 width="1200.000000pt" height="1200.000000pt" viewBox="0 0 1200.000000 1200.000000"
 preserveAspectRatio="xMidYMid meet">

<g transform="translate(0.000000,1200.000000) scale(0.100000,-0.100000)"
fill="#000000" stroke="none">
<path d="M161 11983 c-59 -21 -124 -87 -144 -148 -16 -45 -17 -475 -17 -5839
1 -4812 3 -5797 14 -5829 20 -54 60 -103 111 -132 94 -56 -280 -138 4669 1035
2485 589 4535 1079 4555 1090 43 22 82 62 107 110 17 31 20 67 24 308 l5 272
430 -346 c523 -422 559 -448 671 -506 188 -97 363 -140 569 -140 72 -1 159 4
195 11 309 57 515 227 600 496 31 98 39 297 16 418 -46 242 -168 472 -341 641
-44 43 -543 450 -1110 905 l-1030 826 -5 3335 -5 3335 -22 40 c-25 47 -64 85
-113 111 -34 18 -166 19 -4585 21 -4101 1 -4554 0 -4594 -14z m8819 -3453 l0
-2970 -152 123 c-1026 830 -2002 1606 -2049 1628 -191 93 -759 304 -1019 379
-393 114 -638 134 -758 64 -81 -48 -130 -145 -118 -233 7 -52 58 -201 109
-318 l36 -83 -1587 -2 c-1526 -3 -1588 -4 -1622 -22 -134 -71 -183 -219 -115
-345 32 -59 75 -96 132 -117 31 -11 344 -13 1739 -14 l1702 0 112 -207 c157
-288 261 -471 285 -497 11 -12 146 -123 300 -246 l280 -225 -2195 -5 -2195 -5
-45 -21 c-103 -48 -164 -166 -142 -274 15 -70 55 -127 117 -165 l48 -30 2291
-3 c2559 -3 2337 -9 2415 69 22 22 48 62 58 89 l18 48 1175 -944 1175 -944 3
-229 2 -229 -1632 896 c-898 493 -1651 902 -1673 910 -48 17 -129 11 -176 -13
-18 -10 -1144 -842 -2503 -1849 -1359 -1008 -2477 -1836 -2483 -1840 -10 -6
-13 1056 -13 5293 l0 5301 4240 0 4240 0 0 -2970z m-3317 -1314 c183 -61 463
-169 727 -282 l175 -74 1935 -1555 c1064 -855 1936 -1558 1938 -1563 3 -9
-497 -602 -508 -602 -4 0 -880 701 -1945 1558 l-1938 1557 -149 265 c-175 309
-408 734 -408 744 0 9 -2 10 173 -48z m1425 -3946 c798 -437 1449 -796 1448
-797 -5 -6 -7430 -1763 -7433 -1760 -6 7 4512 3355 4524 3354 6 -1 664 -360
1461 -797z m4244 -253 c203 -208 239 -426 97 -582 -70 -75 -139 -108 -243
-113 -126 -7 -257 35 -386 121 -77 52 -289 221 -287 229 1 3 116 141 256 306
l254 301 126 -102 c69 -55 152 -127 183 -160z"/>
<path d="M1845 10458 c-102 -36 -169 -130 -169 -238 0 -99 52 -182 141 -226
37 -18 109 -19 2708 -22 2980 -3 2714 -9 2798 67 54 48 77 101 77 179 0 102
-45 176 -135 225 l-40 22 -2675 2 c-1851 1 -2684 -2 -2705 -9z"/>
<path d="M1838 8785 c-58 -21 -102 -60 -133 -117 -67 -124 -20 -271 110 -341
l40 -22 2685 0 2685 0 41 22 c48 25 101 83 120 129 20 48 17 151 -5 199 -23
51 -98 118 -149 133 -30 9 -687 12 -2698 11 -2231 0 -2665 -3 -2696 -14z"/>
</g>
</svg>
