<svg 
          width="55" 
          height="64.04109954833984" fill="none" 
          xmlns="http://www.w3.org/2000/svg">
          <path d="M 46.07183409606024 0.6912599450914105 C 45.55837536053469 0.14336837333378882 44.764762350356904 -0.10503586430782332 43.99701155206129 0.04132731535185828 C 37.935301108894805 1.197458707094911 32.22767649825668 3.8253599369594555 27.50120248665676 7.710432178603286 C 22.79287269704647 3.8412609136172002 17.08673724836342 1.201715564636589 11.002955389886296 0.04132731535185828 C 10.235339987559279 -0.10491065471371257 9.441726977381494 0.14336837333378882 8.928132845887342 0.6912599450914105 C -1.7201778237718806 12.051871942910138 -2.867606294223129 28.44404913687554 5.615024357022759 40.919600316252456 C 9.786334866125031 47.05395758720011 16.8646728804285 49.78477581981464 24.166971451892383 48.59145892489826 C 24.692887520460307 53.06599017427978 24.769256496320526 57.508970695508296 24.39052653137859 61.87770510654984 C 24.28964922261407 63.0418495541052 25.283119902438926 64.04109954833984 26.55241365480887 64.04109954833984 C 27.670459198512027 64.04109954833984 28.618705865386936 63.246181940002785 28.709563146101793 62.197725843945804 C 29.112936985191272 57.54465374325409 29.028851181635666 52.816083705092375 28.462855033152344 48.057715305928134 C 36.32302528475192 50.32728366260903 44.685686714171595 47.830219936168874 49.38480880311894 40.919474226056835 C 57.87028296340497 28.440167087216484 56.716894745940984 12.048241118413564 46.07183409606024 0.6912599450914105 L 46.07183409606024 0.6912599450914105 Z M 9.283302362696572 38.78688018023303 C 2.009980723774502 28.090724348947333 2.7803051431041776 14.191729010868427 11.380197355070306 4.229392326908769 C 24.89125685137528 7.35222402247392 34.171834184575054 18.186855306604695 35.230301176137885 30.557360935057194 C 35.78492328846066 37.0400352071866 31.913940859632582 41.23649124663368 27.733693570937586 43.27693676256451 C 26.69675608797845 37.705370184173944 25.044129166000186 32.32761665442355 22.884271497069218 27.041639592966177 L 25.35244767455009 20.582252842647343 C 25.75108229962275 19.539055280884927 25.159630256296076 18.39469299397031 24.03142930471628 18.02609317287677 C 22.902957561199283 17.65736815711457 21.665484024428512 18.20438291842808 21.26698479532445 19.247580480190496 L 20.411896946931083 21.48547321255871 C 19.163455594188818 18.891877650277493 17.781369574826115 16.29214784774085 16.267532882807178 13.693919664806579 C 15.700182645504832 12.719959769764907 14.38620551170334 12.355741911329009 13.33274849381127 12.88034560306528 C 12.2792914759192 13.405074489470213 11.885531331698939 14.620052091926123 12.452881569001285 15.594011986967795 C 16.03395837251151 21.740639171269432 18.849449809292604 27.882510749215854 20.855486423320833 33.91582869863626 L 16.301791355755057 32.46158462158244 C 15.171017687072325 32.10049701792476 13.937335560254914 32.655277908417496 13.546689878428262 33.70110473732719 C 13.156044196601611 34.74680643127002 13.756297171586846 35.8874106094565 14.887206300804687 36.248623407782844 L 22.255176759527988 38.601703354764005 C 22.787863110774754 40.612350270885116 23.225088201842176 42.58806423264006 23.583236494527128 44.618868863557 C 18.029433067924757 45.59170194687892 12.576506288280193 43.630136415525854 9.283302362696572 38.78688018023303 Z M 45.716666645379284 38.78688018023303 C 42.78675625298696 43.09576712172141 38.11633836764897 45.181912512628685 33.019800120496605 44.81619237787065 C 37.80531116492896 41.17000899695764 40.03300902589546 35.88803506040398 39.54988118259773 30.241346427058392 C 38.935409726197435 23.059909902900046 35.83840766611728 16.091445450514673 30.562185990763734 10.554310092586878 C 34.31996738203291 7.513486696069302 38.80988959249114 5.3410764470817575 43.61977371913383 4.229267191941905 C 52.26529740714425 14.244564623747795 52.949231321392716 28.150822566048603 45.716666645379284 38.78688018023303 L 45.716666645379284 38.78688018023303 Z" fill="rgb(0,0,0)"/>
        </svg>