<?xml version="1.0" standalone="no"?>
<!DOCTYPE svg PUBLIC "-//W3C//DTD SVG 20010904//EN"
 "http://www.w3.org/TR/2001/REC-SVG-20010904/DTD/svg10.dtd">
<svg version="1.0" xmlns="http://www.w3.org/2000/svg"
 width="487.000000pt" height="512.000000pt" viewBox="0 0 487.000000 512.000000"
 preserveAspectRatio="xMidYMid meet">

<g transform="translate(0.000000,512.000000) scale(0.100000,-0.100000)"
fill="#000000" stroke="none">
<path d="M2310 4869 c-63 -4 -121 -7 -129 -8 -11 -1 -12 -17 -7 -83 4 -46 9
-90 12 -98 3 -14 29 -15 192 -12 358 8 671 -57 979 -203 679 -321 1146 -971
1234 -1718 15 -132 6 -493 -15 -612 -85 -463 -283 -843 -610 -1171 -282 -281
-599 -466 -970 -564 -227 -60 -492 -88 -691 -71 -60 5 -111 7 -113 6 -1 -1 -8
-44 -14 -95 -8 -74 -8 -94 2 -100 26 -16 280 -22 419 -11 438 36 824 170 1171
409 568 390 930 984 1021 1677 18 135 15 457 -5 600 -37 263 -106 487 -226
730 -129 263 -266 451 -479 658 -352 342 -787 561 -1276 642 -126 21 -346 32
-495 24z"/>
<path d="M1508 4686 c-167 -70 -340 -166 -333 -185 3 -8 26 -47 52 -88 l45
-74 42 25 c120 70 281 146 378 179 15 5 13 15 -16 96 -17 50 -34 92 -37 95 -2
3 -61 -19 -131 -48z"/>
<path d="M655 4081 c-74 -85 -234 -299 -235 -312 0 -4 37 -31 82 -59 l83 -53
20 29 c83 115 172 229 223 285 l61 66 -67 66 c-37 37 -72 67 -78 67 -6 0 -46
-40 -89 -89z"/>
<path d="M2790 2705 c-321 -482 -587 -874 -592 -873 -5 2 -193 167 -419 368
-226 201 -415 365 -419 365 -11 0 -131 -137 -128 -146 4 -11 1009 -901 1012
-897 13 15 1289 1933 1292 1943 5 12 -133 115 -154 115 -5 0 -271 -394 -592
-875z"/>
<path d="M157 3193 c-35 -115 -75 -292 -83 -369 l-6 -61 88 -7 c49 -4 93 -7
99 -7 5 0 19 54 31 121 12 66 34 162 49 213 15 50 29 101 32 112 4 17 -8 24
-79 49 -46 16 -88 31 -94 33 -6 2 -22 -34 -37 -84z"/>
<path d="M200 2244 c-8 -1 -41 -6 -74 -9 l-59 -7 7 -56 c14 -115 90 -430 110
-449 5 -5 151 41 174 55 10 7 5 36 -22 134 -19 70 -43 174 -52 232 -20 114
-20 114 -84 100z"/>
<path d="M515 1294 c-38 -25 -76 -49 -84 -53 -10 -6 -2 -25 37 -83 60 -89 149
-201 222 -281 l53 -58 73 72 73 72 -74 80 c-41 44 -103 120 -137 170 -101 143
-82 134 -163 81z"/>
<path d="M1247 613 c-13 -21 -36 -58 -51 -82 -22 -35 -25 -45 -14 -53 112 -74
449 -232 462 -217 2 2 17 45 33 95 l31 92 -72 27 c-39 15 -135 61 -214 101
-79 41 -145 74 -148 74 -2 0 -14 -17 -27 -37z"/>
</g>
</svg>
