<?xml version="1.0" standalone="no"?>
<!DOCTYPE svg PUBLIC "-//W3C//DTD SVG 20010904//EN"
 "http://www.w3.org/TR/2001/REC-SVG-20010904/DTD/svg10.dtd">
<svg version="1.0" xmlns="http://www.w3.org/2000/svg"
 width="491.000000pt" height="508.000000pt" viewBox="0 0 491.000000 508.000000"
 preserveAspectRatio="xMidYMid meet">

<g transform="translate(0.000000,508.000000) scale(0.100000,-0.100000)"
fill="#000000" stroke="none">
<path d="M1560 5060 c-126 -7 -161 -19 -203 -70 -34 -40 -41 -81 -34 -205 l5
-103 -77 -27 c-83 -30 -212 -92 -273 -132 l-38 -26 -79 72 c-117 105 -177 123
-259 79 -55 -31 -269 -272 -282 -318 -21 -75 1 -143 66 -199 21 -19 58 -51 82
-73 l42 -38 -26 -52 c-37 -73 -72 -168 -98 -268 l-23 -85 -114 -6 c-123 -6
-162 -19 -198 -65 -40 -51 -45 -89 -33 -278 11 -177 17 -202 56 -244 37 -41
58 -47 195 -52 l133 -5 28 -75 c30 -84 66 -158 116 -241 19 -31 34 -59 34 -61
0 -3 -33 -43 -74 -88 -80 -89 -102 -137 -91 -199 9 -55 28 -79 165 -201 131
-118 167 -140 225 -140 60 0 98 24 180 113 l78 86 51 -26 c71 -36 167 -71 266
-97 l85 -23 11 -120 c12 -142 30 -180 100 -214 45 -21 51 -22 233 -12 207 10
230 17 278 80 28 36 28 39 26 169 l-1 132 76 27 c84 30 213 92 273 132 l38 25
79 -71 c109 -98 168 -119 245 -87 35 14 222 208 269 277 34 52 43 94 29 147
-12 43 -39 75 -134 159 l-59 51 21 40 c36 71 63 143 95 257 l32 110 109 6
c123 6 173 23 206 71 36 50 40 87 29 266 -10 179 -17 212 -53 250 -42 46 -72
54 -204 56 l-124 1 -42 107 c-24 58 -64 142 -90 187 -26 44 -47 84 -47 89 0 5
12 19 26 33 59 54 124 141 134 181 22 79 2 115 -124 233 -177 164 -193 175
-262 175 -59 0 -96 -24 -179 -113 l-80 -85 -35 19 c-59 31 -188 79 -279 103
l-86 23 -7 49 c-3 27 -7 75 -7 106 -1 68 -13 103 -49 142 -54 57 -87 62 -352
46z m273 -118 c12 -13 18 -47 22 -127 3 -61 8 -128 11 -151 l5 -41 72 -12
c102 -17 266 -74 369 -128 52 -28 92 -43 96 -37 5 5 50 55 101 112 115 126
125 128 215 48 140 -123 196 -181 196 -204 0 -13 -28 -54 -72 -103 -40 -44
-86 -96 -101 -115 l-29 -34 56 -83 c81 -122 118 -207 181 -414 3 -8 15 -11 32
-8 15 2 83 6 150 9 172 8 165 16 176 -204 9 -168 9 -172 -12 -193 -22 -23
-104 -34 -253 -36 l-67 -1 -6 -37 c-25 -150 -92 -342 -156 -447 -17 -26 -29
-49 -27 -50 2 -2 54 -49 116 -105 82 -75 112 -109 112 -126 0 -27 -18 -50
-143 -187 -117 -128 -113 -128 -258 1 l-112 100 -71 -49 c-116 -78 -241 -136
-379 -175 l-57 -16 7 -158 6 -159 -24 -15 c-18 -12 -65 -18 -194 -23 -217 -9
-204 -20 -216 182 -4 81 -10 147 -11 148 -2 1 -42 9 -89 19 -122 24 -228 61
-343 120 l-99 50 -25 -29 c-14 -16 -59 -66 -100 -111 -104 -114 -102 -114
-262 30 -89 80 -126 120 -128 138 -3 27 17 55 141 193 l58 65 -49 73 c-70 103
-124 217 -162 335 l-32 102 -42 -4 c-22 -2 -89 -7 -148 -10 -146 -7 -151 -3
-159 137 -4 56 -7 136 -8 176 -2 106 1 108 186 117 l150 7 13 72 c19 110 67
251 123 360 l50 99 -49 46 c-27 25 -78 72 -112 103 -89 82 -88 85 54 241 98
108 120 127 145 127 24 0 52 -20 139 -100 l109 -101 73 49 c104 70 217 125
337 163 l103 32 -6 86 c-12 167 -10 221 8 239 18 18 100 27 277 30 81 2 98 -1
112 -16z"/>
<path d="M1635 3993 c-151 -20 -315 -113 -409 -233 -91 -115 -136 -247 -136
-395 0 -245 128 -453 348 -565 89 -45 173 -64 282 -64 181 1 315 58 445 189
92 92 136 166 165 281 38 148 22 300 -47 444 -52 108 -167 222 -283 279 -118
58 -245 80 -365 64z m208 -119 c97 -25 176 -70 247 -143 108 -109 150 -214
150 -372 0 -152 -57 -281 -170 -382 -208 -187 -507 -181 -713 12 -217 204
-217 548 0 752 137 129 315 177 486 133z"/>
<path d="M3902 3174 c-32 -22 -46 -52 -52 -112 l-5 -54 -74 -28 -74 -29 -37
29 c-87 69 -134 62 -232 -37 -37 -37 -72 -81 -78 -97 -16 -42 -3 -86 37 -128
l35 -36 -25 -64 c-13 -34 -27 -71 -30 -80 -5 -14 -18 -18 -55 -18 -62 0 -112
-32 -129 -80 -15 -45 -15 -175 0 -220 17 -48 67 -80 129 -80 37 0 50 -4 55
-17 3 -10 16 -44 28 -76 l23 -58 -36 -50 -37 -49 -9 35 c-4 20 -20 48 -36 63
-31 31 -224 112 -268 112 -48 0 -94 -39 -127 -107 l-29 -63 -121 0 -121 0 -13
38 c-30 85 -81 132 -143 132 -43 -1 -241 -88 -270 -120 -38 -42 -40 -92 -7
-175 l20 -50 -85 -85 -85 -85 -53 22 c-69 29 -116 29 -159 0 -27 -18 -43 -45
-81 -132 -26 -61 -47 -126 -47 -146 -1 -65 47 -115 141 -148 l28 -10 0 -120 0
-121 -64 -29 c-114 -52 -127 -101 -66 -251 23 -57 50 -116 60 -131 38 -53 106
-61 200 -24 l45 17 84 -83 83 -84 -18 -45 c-10 -25 -19 -69 -19 -98 0 -49 3
-56 36 -86 50 -46 239 -120 282 -110 53 11 83 40 111 106 l27 63 122 -1 c93
-1 122 -5 125 -15 3 -8 15 -37 29 -66 19 -42 33 -56 69 -73 53 -26 60 -25 207
37 86 36 113 52 128 77 25 40 24 98 -2 161 l-21 50 86 87 85 86 62 -25 c116
-47 171 -11 238 154 22 56 41 115 41 131 0 48 -39 94 -107 126 l-62 30 -3 119
-3 119 36 15 c104 41 144 87 136 153 -5 36 -80 224 -101 249 -6 8 -30 23 -53
33 l-42 19 39 35 39 36 78 -30 78 -30 5 -54 c11 -111 37 -128 192 -128 115 0
118 1 150 29 28 25 32 36 36 90 3 46 9 64 21 68 9 3 45 17 79 30 l64 25 32
-31 c43 -42 86 -56 129 -42 39 13 170 143 182 179 12 39 -3 86 -41 130 l-35
41 19 38 c11 21 25 54 31 74 12 36 13 37 71 41 98 7 130 53 130 188 0 135 -32
181 -130 188 -58 4 -59 5 -71 41 -6 20 -20 53 -31 74 l-19 38 31 36 c72 82 66
129 -33 230 -102 105 -157 115 -234 41 l-32 -31 -63 26 c-35 14 -70 28 -79 30
-12 4 -18 22 -21 68 -4 54 -8 65 -36 90 -32 28 -35 29 -150 29 -90 0 -123 -4
-140 -16z m220 -166 c3 -77 4 -82 28 -89 108 -31 142 -45 194 -75 l59 -35 59
58 58 58 57 -58 58 -57 -58 -58 -58 -58 34 -57 c29 -47 49 -99 83 -214 2 -9
28 -13 84 -13 l80 0 0 -80 0 -80 -80 0 c-56 0 -82 -4 -84 -12 -3 -7 -14 -44
-25 -83 -11 -38 -36 -97 -56 -129 l-36 -60 58 -58 58 -58 -58 -57 -57 -58 -58
58 -58 58 -56 -34 c-31 -19 -83 -42 -115 -51 -32 -10 -69 -21 -83 -25 -24 -7
-25 -12 -28 -89 l-3 -82 -79 0 -80 0 0 83 0 84 -57 13 c-67 15 -125 39 -183
75 l-43 27 -58 -58 -59 -59 -57 58 -58 57 58 58 59 59 -33 53 c-18 29 -44 91
-59 139 l-27 86 -81 3 -82 3 0 79 0 80 84 0 84 0 7 38 c11 62 42 141 76 194
l32 49 -59 60 -59 60 58 56 58 56 59 -58 59 -58 38 25 c46 30 154 74 206 83
l37 7 0 84 0 84 80 0 79 0 3 -82z m-1625 -1030 c4 -7 22 -47 40 -88 l31 -75
39 1 c21 1 74 3 118 5 44 2 112 0 150 -4 l70 -8 35 87 c19 47 40 89 47 91 18
7 185 -61 197 -79 6 -11 -1 -39 -23 -92 -18 -43 -34 -83 -37 -90 -3 -7 20 -29
51 -50 59 -41 152 -136 182 -186 9 -16 23 -30 29 -30 7 0 49 16 93 35 45 19
87 32 94 29 8 -3 31 -48 52 -100 45 -112 48 -105 -73 -154 -61 -25 -81 -38
-78 -49 19 -67 23 -181 11 -291 l-6 -65 86 -34 c48 -19 89 -41 92 -48 7 -17
-66 -193 -83 -200 -6 -2 -51 12 -99 31 -49 20 -89 35 -91 33 -1 -1 -29 -36
-62 -78 -33 -42 -91 -100 -130 -128 l-70 -52 40 -91 c32 -74 37 -94 26 -104
-7 -6 -53 -29 -101 -49 -104 -45 -100 -47 -148 72 l-33 83 -40 -8 c-53 -9
-251 -9 -296 0 l-35 8 -33 -84 c-18 -47 -40 -90 -47 -96 -11 -9 -34 -4 -106
26 -50 21 -93 44 -96 51 -3 8 8 49 25 91 17 42 32 82 34 89 2 6 -27 34 -64 62
-60 45 -133 123 -178 188 l-15 22 -80 -34 c-117 -50 -115 -51 -158 56 -20 49
-37 96 -37 103 0 8 42 32 93 53 59 26 91 45 89 53 -14 61 -20 187 -12 251 5
41 10 81 10 90 0 11 -28 27 -86 50 -47 19 -88 40 -91 47 -10 23 68 202 87 202
9 0 54 -15 100 -34 l83 -33 42 56 c42 58 150 161 196 188 l26 16 -40 94 c-23
55 -36 98 -31 103 11 11 175 79 191 80 6 0 15 -6 20 -12z m853 -156 c12 -47
146 -182 179 -182 34 0 24 -16 -22 -34 l-43 -16 -85 84 -85 84 20 51 c12 28
22 51 23 51 1 0 7 -17 13 -38z"/>
<path d="M3932 2642 c-141 -51 -231 -190 -220 -337 10 -117 80 -220 187 -272
48 -24 68 -28 141 -28 73 0 93 4 141 28 66 32 132 99 162 165 34 73 31 198 -6
273 -32 67 -100 132 -165 162 -66 29 -172 33 -240 9z m192 -106 c165 -69 185
-294 34 -393 -36 -24 -51 -28 -118 -28 -67 0 -82 4 -118 28 -63 41 -95 97
-100 171 -6 97 36 173 121 215 49 25 131 28 181 7z"/>
<path d="M2636 1440 c-289 -92 -380 -455 -168 -673 92 -96 232 -141 359 -118
127 23 249 114 303 226 72 150 40 343 -78 459 -64 63 -96 83 -171 106 -79 25
-168 25 -245 0z m230 -107 c67 -23 154 -110 177 -177 50 -147 -12 -302 -148
-374 -43 -23 -62 -27 -135 -27 -73 0 -92 4 -136 27 -64 34 -128 105 -148 165
-21 60 -20 147 1 209 22 64 110 154 173 177 60 21 155 21 216 0z"/>
</g>
</svg>
