<svg width="139" height="53" viewBox="0 0 139 53" fill="none" xmlns="http://www.w3.org/2000/svg">
<rect width="139" height="53" fill="#E5E5E5"/>
<g clip-path="url(#clip0_49_1972)">
<rect width="1440" height="1220" transform="translate(-374 -1010)" fill="#F5F5F5"/>
<rect x="-283" y="-1088" width="1349" height="1319" fill="#92BDA3" fill-opacity="0.11"/>
<rect width="139" height="53" rx="15" fill="#0B3F24"/>
<path d="M46.2285 30.4062C46.2285 30.0742 46.1764 29.7812 46.0723 29.5273C45.9746 29.2669 45.7988 29.0326 45.5449 28.8242C45.2975 28.6159 44.9525 28.4173 44.5098 28.2285C44.0736 28.0397 43.5202 27.8477 42.8496 27.6523C42.1465 27.444 41.5117 27.2129 40.9453 26.959C40.3789 26.6986 39.8939 26.4023 39.4902 26.0703C39.0866 25.7383 38.7773 25.3574 38.5625 24.9277C38.3477 24.498 38.2402 24.0065 38.2402 23.4531C38.2402 22.8997 38.3542 22.3887 38.582 21.9199C38.8099 21.4512 39.1354 21.0443 39.5586 20.6992C39.9883 20.3477 40.4993 20.0742 41.0918 19.8789C41.6842 19.6836 42.3451 19.5859 43.0742 19.5859C44.1419 19.5859 45.0469 19.791 45.7891 20.2012C46.5378 20.6048 47.1074 21.1354 47.498 21.793C47.8887 22.444 48.084 23.1406 48.084 23.8828H46.209C46.209 23.349 46.0951 22.877 45.8672 22.4668C45.6393 22.0501 45.2943 21.7246 44.832 21.4902C44.3698 21.2493 43.7839 21.1289 43.0742 21.1289C42.4036 21.1289 41.8503 21.2298 41.4141 21.4316C40.9779 21.6335 40.6523 21.9069 40.4375 22.252C40.2292 22.597 40.125 22.9909 40.125 23.4336C40.125 23.7331 40.1868 24.0065 40.3105 24.2539C40.4408 24.4948 40.6393 24.7194 40.9062 24.9277C41.1797 25.1361 41.5247 25.3281 41.9414 25.5039C42.3646 25.6797 42.8691 25.849 43.4551 26.0117C44.2624 26.2396 44.959 26.4935 45.5449 26.7734C46.1309 27.0534 46.6126 27.3691 46.9902 27.7207C47.3743 28.0658 47.6576 28.4596 47.8398 28.9023C48.0286 29.3385 48.123 29.8333 48.123 30.3867C48.123 30.9661 48.0059 31.4902 47.7715 31.959C47.5371 32.4277 47.2018 32.8281 46.7656 33.1602C46.3294 33.4922 45.8053 33.7493 45.1934 33.9316C44.5879 34.1074 43.9108 34.1953 43.1621 34.1953C42.5046 34.1953 41.8568 34.1042 41.2188 33.9219C40.5872 33.7396 40.0111 33.4661 39.4902 33.1016C38.9759 32.737 38.5625 32.2878 38.25 31.7539C37.944 31.2135 37.791 30.5885 37.791 29.8789H39.666C39.666 30.3672 39.7604 30.7871 39.9492 31.1387C40.138 31.4837 40.3952 31.7702 40.7207 31.998C41.0527 32.2259 41.4271 32.3952 41.8438 32.5059C42.2669 32.61 42.7064 32.6621 43.1621 32.6621C43.8197 32.6621 44.3763 32.571 44.832 32.3887C45.2878 32.2064 45.6328 31.946 45.8672 31.6074C46.1081 31.2689 46.2285 30.8685 46.2285 30.4062ZM56.7168 31.5586V23.4336H58.5332V34H56.8047L56.7168 31.5586ZM57.0586 29.332L57.8105 29.3125C57.8105 30.0156 57.7357 30.6667 57.5859 31.2656C57.4427 31.8581 57.2083 32.3724 56.8828 32.8086C56.5573 33.2448 56.1309 33.5866 55.6035 33.834C55.0762 34.0749 54.4349 34.1953 53.6797 34.1953C53.1654 34.1953 52.6934 34.1204 52.2637 33.9707C51.8405 33.821 51.4759 33.5898 51.1699 33.2773C50.8639 32.9648 50.6263 32.5579 50.457 32.0566C50.2943 31.5553 50.2129 30.9531 50.2129 30.25V23.4336H52.0195V30.2695C52.0195 30.7448 52.0716 31.1387 52.1758 31.4512C52.2865 31.7572 52.4329 32.0013 52.6152 32.1836C52.804 32.3594 53.0124 32.4831 53.2402 32.5547C53.4746 32.6263 53.7155 32.6621 53.9629 32.6621C54.7311 32.6621 55.3398 32.5156 55.7891 32.2227C56.2383 31.9232 56.5605 31.5228 56.7559 31.0215C56.9577 30.5137 57.0586 29.9505 57.0586 29.332ZM61.2773 19H63.0938V31.9492L62.9375 34H61.2773V19ZM70.2324 28.6289V28.834C70.2324 29.6022 70.1413 30.3151 69.959 30.9727C69.7767 31.6237 69.5098 32.1901 69.1582 32.6719C68.8066 33.1536 68.377 33.528 67.8691 33.7949C67.3613 34.0618 66.7786 34.1953 66.1211 34.1953C65.4505 34.1953 64.8613 34.0814 64.3535 33.8535C63.8522 33.6191 63.429 33.2839 63.084 32.8477C62.7389 32.4115 62.4622 31.8841 62.2539 31.2656C62.0521 30.6471 61.9121 29.9505 61.834 29.1758V28.2773C61.9121 27.4961 62.0521 26.7962 62.2539 26.1777C62.4622 25.5592 62.7389 25.0319 63.084 24.5957C63.429 24.153 63.8522 23.8177 64.3535 23.5898C64.8548 23.3555 65.4375 23.2383 66.1016 23.2383C66.7656 23.2383 67.3548 23.3685 67.8691 23.6289C68.3835 23.8828 68.8132 24.2474 69.1582 24.7227C69.5098 25.1979 69.7767 25.7676 69.959 26.4316C70.1413 27.0892 70.2324 27.8216 70.2324 28.6289ZM68.416 28.834V28.6289C68.416 28.1016 68.3672 27.6068 68.2695 27.1445C68.1719 26.6758 68.0156 26.2656 67.8008 25.9141C67.5859 25.556 67.3027 25.276 66.9512 25.0742C66.5996 24.8659 66.1667 24.7617 65.6523 24.7617C65.1966 24.7617 64.7995 24.8398 64.4609 24.9961C64.1289 25.1523 63.8457 25.3639 63.6113 25.6309C63.377 25.8913 63.1849 26.1908 63.0352 26.5293C62.8919 26.8613 62.7845 27.2064 62.7129 27.5645V29.918C62.8171 30.3737 62.9863 30.8132 63.2207 31.2363C63.4616 31.653 63.7806 31.9948 64.1777 32.2617C64.5814 32.5286 65.0794 32.6621 65.6719 32.6621C66.1602 32.6621 66.5768 32.5645 66.9219 32.3691C67.2734 32.1673 67.5566 31.8906 67.7715 31.5391C67.9928 31.1875 68.1556 30.7806 68.2598 30.3184C68.3639 29.8561 68.416 29.3613 68.416 28.834ZM74.3145 25.5332V34H72.498V23.4336H74.2168L74.3145 25.5332ZM73.9434 28.3164L73.1035 28.2871C73.11 27.5645 73.2044 26.8971 73.3867 26.2852C73.569 25.6667 73.8392 25.1296 74.1973 24.6738C74.5553 24.2181 75.0013 23.8665 75.5352 23.6191C76.069 23.3652 76.6875 23.2383 77.3906 23.2383C77.8854 23.2383 78.3411 23.3099 78.7578 23.4531C79.1745 23.5898 79.5358 23.8079 79.8418 24.1074C80.1478 24.4069 80.3854 24.791 80.5547 25.2598C80.724 25.7285 80.8086 26.2949 80.8086 26.959V34H79.002V27.0469C79.002 26.4935 78.9076 26.0508 78.7188 25.7188C78.5365 25.3867 78.276 25.1458 77.9375 24.9961C77.599 24.8398 77.2018 24.7617 76.7461 24.7617C76.2122 24.7617 75.7663 24.8561 75.4082 25.0449C75.0501 25.2337 74.7637 25.4941 74.5488 25.8262C74.334 26.1582 74.1777 26.5391 74.0801 26.9688C73.9889 27.3919 73.9434 27.8411 73.9434 28.3164ZM80.7891 27.3203L79.5781 27.6914C79.5846 27.112 79.679 26.5553 79.8613 26.0215C80.0501 25.4876 80.3203 25.0124 80.6719 24.5957C81.0299 24.179 81.4694 23.8503 81.9902 23.6094C82.5111 23.362 83.1068 23.2383 83.7773 23.2383C84.3438 23.2383 84.8451 23.3132 85.2812 23.4629C85.724 23.6126 86.0951 23.8438 86.3945 24.1562C86.7005 24.4622 86.9316 24.8561 87.0879 25.3379C87.2441 25.8197 87.3223 26.3926 87.3223 27.0566V34H85.5059V27.0371C85.5059 26.4447 85.4115 25.9857 85.2227 25.6602C85.0404 25.3281 84.7799 25.097 84.4414 24.9668C84.1094 24.8301 83.7122 24.7617 83.25 24.7617C82.8529 24.7617 82.5013 24.8301 82.1953 24.9668C81.8893 25.1035 81.6322 25.2923 81.4238 25.5332C81.2155 25.7676 81.056 26.0378 80.9453 26.3438C80.8411 26.6497 80.7891 26.9753 80.7891 27.3203ZM92.0195 23.4336V34H90.2031V23.4336H92.0195ZM90.0664 20.6309C90.0664 20.3379 90.1543 20.0905 90.3301 19.8887C90.5124 19.6868 90.7793 19.5859 91.1309 19.5859C91.4759 19.5859 91.7396 19.6868 91.9219 19.8887C92.1107 20.0905 92.2051 20.3379 92.2051 20.6309C92.2051 20.9108 92.1107 21.1517 91.9219 21.3535C91.7396 21.5488 91.4759 21.6465 91.1309 21.6465C90.7793 21.6465 90.5124 21.5488 90.3301 21.3535C90.1543 21.1517 90.0664 20.9108 90.0664 20.6309ZM99.3438 23.4336V24.8203H93.6309V23.4336H99.3438ZM95.5645 20.8652H97.3711V31.3828C97.3711 31.7409 97.4264 32.0111 97.5371 32.1934C97.6478 32.3757 97.791 32.4961 97.9668 32.5547C98.1426 32.6133 98.3314 32.6426 98.5332 32.6426C98.6829 32.6426 98.8392 32.6296 99.002 32.6035C99.1712 32.571 99.2982 32.5449 99.3828 32.5254L99.3926 34C99.2493 34.0456 99.0605 34.0879 98.8262 34.127C98.5983 34.1725 98.3216 34.1953 97.9961 34.1953C97.5534 34.1953 97.1465 34.1074 96.7754 33.9316C96.4043 33.7559 96.1081 33.4629 95.8867 33.0527C95.6719 32.6361 95.5645 32.0762 95.5645 31.373V20.8652Z" fill="white"/>
</g>
<defs>
<clipPath id="clip0_49_1972">
<rect width="1440" height="1220" fill="white" transform="translate(-374 -1010)"/>
</clipPath>
</defs>
</svg>
