<?xml version="1.0" encoding="iso-8859-1"?>
<!-- Generator: Adobe Illustrator 19.0.0, SVG Export Plug-In . SVG Version: 6.00 Build 0)  -->
<svg version="1.1" id="Layer_1" xmlns="http://www.w3.org/2000/svg" xmlns:xlink="http://www.w3.org/1999/xlink" x="0px" y="0px"
	 viewBox="0 0 512.001 512.001" style="enable-background:new 0 0 512.001 512.001;" xml:space="preserve">
<g>
	<g>
		<path d="M256.001,0C114.842,0,0.001,114.841,0.001,256.001s114.841,256.001,256.001,256.001
			c141.158,0,255.999-114.841,255.999-256.001S397.159,0,256.001,0z M256.001,493.701c-131.069,0-237.702-106.631-237.702-237.7
			S124.932,18.299,256.001,18.299c131.068,0,237.7,106.632,237.7,237.702S387.069,493.701,256.001,493.701z"/>
	</g>
</g>
<g>
	<g>
		<path d="M189.596,149.344c-24.513-24.512-68.842-20.067-98.818,9.91c-29.976,29.975-34.421,74.305-9.91,98.818
			c10.649,10.649,25.034,15.832,40.363,15.832c19.953,0,41.502-8.788,58.455-25.742
			C209.663,218.186,214.109,173.856,189.596,149.344z M186.868,195.651c-1.636,14.178-8.781,28.232-20.12,39.571
			c-11.339,11.339-25.392,18.485-39.571,20.12c-13.388,1.551-25.238-2.082-33.369-10.212c-17.377-17.378-12.933-50.098,9.91-72.939
			c13.444-13.444,30.309-20.515,45.455-20.515c10.588,0,20.334,3.456,27.484,10.605
			C184.786,170.413,188.414,182.264,186.868,195.651z"/>
	</g>
</g>
<g>
	<g>
		<path d="M421.222,159.253c-29.975-29.976-74.306-34.422-98.818-9.91c-24.512,24.512-20.067,68.841,9.91,98.818
			c16.955,16.955,38.499,25.742,58.455,25.742c15.326,0,29.715-5.185,40.363-15.832
			C455.644,233.559,451.199,189.228,421.222,159.253z M418.193,245.132c-8.13,8.131-19.983,11.761-33.369,10.212
			c-14.178-1.636-28.232-8.781-39.571-20.12c-11.339-11.339-18.484-25.394-20.12-39.572c-1.546-13.388,2.082-25.238,10.212-33.369
			c7.151-7.15,16.895-10.605,27.484-10.605c15.144,0,32.012,7.072,45.455,20.515C431.125,195.034,435.57,227.754,418.193,245.132z"
			/>
	</g>
</g>
<g>
	<g>
		<path d="M314.222,255.43c-2.989-5.035-6.591-9.675-10.709-13.793c-13.135-13.135-30.596-20.369-49.167-20.369
			c-24.468,0-47.408,13.1-59.864,34.177c-6.32,10.659-9.661,22.886-9.661,35.36v47.565c0,3.33,0.233,6.623,0.687,9.736
			c4.777,34.091,34.371,59.8,68.838,59.8c34.475,0,64.074-25.703,68.844-59.742c0.46-3.161,0.693-6.456,0.693-9.795v-47.565
			C323.882,278.336,320.543,266.107,314.222,255.43z M254.346,239.567c13.683,0,26.55,5.33,36.229,15.009
			c1.261,1.261,2.441,2.605,3.567,3.994c-11.372,8.747-25.239,13.508-39.794,13.508c-14.547,0-28.409-4.758-39.782-13.501
			C224.21,246.71,238.855,239.567,254.346,239.567z M254.346,389.607c-23.922,0-44.65-16.803-49.921-39.78
			c4.841-4.5,11.648-8.762,20.07-8.762c3.617,0,7.218,0.8,10.701,2.38c12.153,5.51,26.109,5.512,38.299,0
			c3.484-1.58,7.082-2.38,10.692-2.38c8.444,0,15.258,4.269,20.097,8.774C299.031,372.789,278.288,389.607,254.346,389.607z
			 M305.582,328.382c-6.766-3.672-14.029-5.615-21.398-5.615c-6.233,0-12.371,1.349-18.238,4.009
			c-7.382,3.339-15.836,3.34-23.196,0.004c-5.874-2.663-12.016-4.012-18.258-4.012c-7.461,0-14.659,1.892-21.373,5.541v-37.502
			c0-5.474,0.891-10.873,2.578-16.008c14.112,10.111,30.99,15.58,48.648,15.58c17.667,0,34.547-5.471,48.66-15.587
			c1.687,5.137,2.578,10.54,2.578,16.014V328.382z"/>
	</g>
</g>
<g>
</g>
<g>
</g>
<g>
</g>
<g>
</g>
<g>
</g>
<g>
</g>
<g>
</g>
<g>
</g>
<g>
</g>
<g>
</g>
<g>
</g>
<g>
</g>
<g>
</g>
<g>
</g>
<g>
</g>
</svg>
